HIERARCHY
ROOT ROOT
{
	OFFSET 0.000000 56.020000 -5.659234
	CHANNELS 6 Xposition Yposition Zposition Xrotation Yrotation Zrotation 
	JOINT C_spine0001_bind_JNT
	{
		OFFSET 0.000000 1.618999 0.000000
		CHANNELS 3 Xrotation Yrotation Zrotation
		JOINT C_spine0002_bind_JNT
		{
			OFFSET 0.000000 4.942001 0.000001
			CHANNELS 3 Xrotation Yrotation Zrotation
			JOINT C_spine0003_bind_JNT
			{
				OFFSET 0.000000 4.942001 -0.000000
				CHANNELS 3 Xrotation Yrotation Zrotation
				JOINT C_neck0001_bind_JNT
				{
					OFFSET 0.000000 17.026009 -0.000000
					CHANNELS 3 Xrotation Yrotation Zrotation
					JOINT C_neck0002_bind_JNT
					{
						OFFSET 0.000000 3.249985 0.000000
						CHANNELS 3 Xrotation Yrotation Zrotation
						JOINT C_head_bind_JNT
						{
							OFFSET 0.000000 5.278008 0.000000
							CHANNELS 3 Xrotation Yrotation Zrotation
							End Site
							{
								OFFSET 0.000000 0.000000 0.000000
							}
						}
					}
				}
				JOINT L_clavicle_bind_JNT
				{
					OFFSET 4.590000 12.067001 0.834000
					CHANNELS 3 Xrotation Yrotation Zrotation
					JOINT L_armUpper0001_bind_JNT
					{
						OFFSET 7.812635 0.512001 -3.452945
						CHANNELS 3 Xrotation Yrotation Zrotation
						JOINT L_armLower0001_bind_JNT
						{
							OFFSET 15.265892 -6.552116 -0.058157
							CHANNELS 3 Xrotation Yrotation Zrotation
							JOINT L_hand0001_bind_JNT
							{
								OFFSET 14.747667 -6.369995 5.049225
								CHANNELS 3 Xrotation Yrotation Zrotation
								End Site
								{
									OFFSET 0.000000 0.000000 0.000000
								}
							}
						}
					}
				}
				JOINT R_clavicle_bind_JNT
				{
					OFFSET -4.590000 12.067001 0.834000
					CHANNELS 3 Xrotation Yrotation Zrotation
					JOINT R_armUpper0001_bind_JNT
					{
						OFFSET -7.812635 0.512001 -3.452945
						CHANNELS 3 Xrotation Yrotation Zrotation
						JOINT R_armLower0001_bind_JNT
						{
							OFFSET -15.265890 -6.552124 -0.058160
							CHANNELS 3 Xrotation Yrotation Zrotation
							JOINT R_hand0001_bind_JNT
							{
								OFFSET -14.746784 -6.369629 5.048937
								CHANNELS 3 Xrotation Yrotation Zrotation
								End Site
								{
									OFFSET 0.000000 0.000000 0.000000
								}
							}
						}
					}
				}
			}
		}
	}
	JOINT C_pelvis0001_bind_JNT
	{
		OFFSET -0.000000 0.000000 0.000000
		CHANNELS 3 Xrotation Yrotation Zrotation
		JOINT L_legUpper0001_bind_JNT
		{
			OFFSET 6.599999 -6.027000 0.539000
			CHANNELS 3 Xrotation Yrotation Zrotation
			JOINT L_legLower0001_bind_JNT
			{
				OFFSET -0.140713 -19.187443 0.040261
				CHANNELS 3 Xrotation Yrotation Zrotation
				JOINT L_foot0001_bind_JNT
				{
					OFFSET -0.132215 -18.028637 -1.138370
					CHANNELS 3 Xrotation Yrotation Zrotation
					JOINT L_foot0002_bind_JNT
					{
						OFFSET 0.007014 -4.693133 9.886524
						CHANNELS 3 Xrotation Yrotation Zrotation
						End Site
						{
							OFFSET 0.000000 0.000000 0.000000
						}
					}
				}
			}
		}
		JOINT R_legUpper0001_bind_JNT
		{
			OFFSET -6.599999 -6.027000 0.539000
			CHANNELS 3 Xrotation Yrotation Zrotation
			JOINT R_legLower0001_bind_JNT
			{
				OFFSET 0.140710 -19.187164 0.040550
				CHANNELS 3 Xrotation Yrotation Zrotation
				JOINT R_foot0001_bind_JNT
				{
					OFFSET 0.132215 -18.028633 -1.138362
					CHANNELS 3 Xrotation Yrotation Zrotation
					JOINT R_foot0002_bind_JNT
					{
						OFFSET -0.007014 -4.693128 9.886505
						CHANNELS 3 Xrotation Yrotation Zrotation
						End Site
						{
							OFFSET 0.000000 0.000000 0.000000
						}
					}
				}
			}
		}
	}
}
MOTION
Frames: 12
Frame Time: 0.033333
4.701554 48.044117 68.829315 0.045503 -11.432574 -0.044717 18.357622 5.150839 1.557080 -1.979087 -1.269814 1.698802 8.700682 -0.636763 1.221061 22.774130 -3.929080 -0.579269 -0.317176 -0.781386 -0.442103 6.545660 -8.473337 -1.585116 4.590727 2.739294 9.053605 -21.402254 1.898244 -69.978806 -8.300680 2.112836 -7.769819 -5.685243 -7.069584 -21.678555 3.270800 -1.243913 -13.040945 -7.036268 -19.034725 66.717499 -2.442941 -12.469837 4.408328 3.232489 14.866493 16.845549 12.898872 6.372347 -1.360020 -26.325506 9.345614 3.976358 34.971188 -4.019998 1.486605 -10.639658 -8.234905 -2.963805 -10.863357 -2.404096 3.464088 -39.093792 -9.946476 -17.662191 50.612415 2.337678 -5.680740 -8.247300 22.951147 5.443204 -14.466353 4.131580 0.342579 
4.458590 48.052364 69.767792 0.051820 -11.118966 -0.045242 18.801476 5.104175 0.965370 -2.073765 -1.555472 1.750402 8.913365 -0.591772 0.833560 22.505890 -3.757607 -0.521443 -0.261225 -0.811907 -0.393919 6.309663 -7.879299 -1.482664 4.208968 2.610671 8.344072 -24.313782 0.002257 -69.136711 -8.473653 0.762769 -7.509799 -5.828807 -7.232827 -21.884682 3.097920 -0.911286 -12.816195 -5.439634 -20.038000 66.773254 -1.605107 -12.330735 4.828463 3.329561 14.317039 16.956127 13.234827 6.782748 -1.538254 -25.444834 8.633322 4.054019 34.561230 -3.712987 1.546142 -10.285961 -8.651535 -3.098675 -12.115913 -2.430645 3.392255 -39.834480 -10.021956 -16.700251 43.956768 4.617110 -4.891294 -9.551698 22.989698 6.342525 -10.015026 4.310888 1.366424 
4.218609 47.828091 71.061440 0.053432 -10.574471 -0.042338 18.553785 4.938310 0.789326 -1.734220 -1.750347 1.689889 8.881062 -0.755233 0.641359 22.238071 -3.620318 -0.592032 -0.132269 -0.619502 -0.508902 6.333561 -7.825203 -1.475257 3.886050 3.043395 7.159851 -26.153385 -1.897943 -68.718819 -8.880091 -0.241035 -7.306842 -6.042030 -7.667686 -22.039532 3.366725 -0.216646 -12.157719 -3.903038 -21.397158 66.448807 -0.776595 -12.511676 5.050930 3.196958 14.238680 17.456068 13.141066 7.166736 -1.525843 -23.884611 8.277919 3.942396 34.715786 -3.703173 1.648167 -10.828505 -9.340216 -3.636215 -13.259667 -2.701555 4.112359 -40.401466 -10.819578 -15.051469 38.630470 6.063389 -4.541964 -9.528396 24.030830 7.417843 -6.195964 4.248315 1.293608 
3.994876 47.391335 72.543709 0.040127 -10.199286 -0.042876 18.186443 5.466095 0.725473 -1.791617 -1.999193 1.471207 9.003730 -0.790444 0.498420 22.233269 -3.602022 -0.807795 -0.220707 -0.546744 -0.321666 6.116819 -7.627984 -1.642615 4.195325 3.476062 6.085283 -27.976006 -3.542618 -68.319725 -8.802368 -1.234088 -7.583242 -6.068359 -8.282393 -21.878283 3.675194 0.146784 -11.702950 -2.015572 -22.382740 66.325630 -0.014690 -12.665829 5.346356 3.065288 14.451650 18.086149 12.649229 8.108216 -1.090782 -22.114075 7.983960 3.226289 36.003506 -3.641306 2.277855 -11.994219 -9.909398 -4.018061 -14.539010 -2.560323 4.282923 -40.754459 -11.391148 -13.865558 35.865738 6.698483 -4.433650 -9.235204 24.971058 8.217384 -3.718896 4.331365 0.643040 
3.845285 46.938442 74.035469 0.046633 -9.818958 -0.039256 17.557470 5.952667 0.744906 -1.657195 -2.170107 1.430443 8.987170 -0.733115 0.584186 22.181581 -3.372663 -0.791794 -0.152902 -0.652100 -0.395869 6.006500 -7.370465 -1.645584 4.494638 3.981416 5.249488 -29.349840 -5.296853 -68.779327 -8.992002 -1.543442 -7.673521 -5.650325 -9.003059 -21.558132 3.809938 0.652326 -11.187395 -0.548303 -23.362190 66.141472 0.760032 -13.014822 5.489180 3.307160 14.176876 18.545950 12.201980 9.024865 -0.836065 -20.738491 7.775532 3.242805 37.684425 -3.914424 2.320097 -12.543912 -10.807130 -4.024593 -16.457535 -2.775603 4.401843 -41.603760 -11.614764 -12.409394 36.140553 6.858683 -5.011299 -8.703714 24.660414 7.058966 -2.811428 3.767301 0.234666 
3.710367 46.445831 75.489632 0.033935 -9.630864 -0.050483 16.939285 6.592218 0.907952 -1.847992 -2.303808 1.299624 9.061528 -0.649826 0.486761 22.268990 -3.466025 -0.843250 -0.250469 -0.367392 -0.365874 6.230343 -7.437346 -1.991387 4.977214 4.338330 4.908757 -31.240416 -6.402089 -69.344414 -8.723533 -1.326495 -8.124649 -5.382184 -9.984763 -21.207865 4.178274 1.127630 -10.996132 0.496570 -24.136265 66.223953 2.087754 -13.508040 5.545788 3.299329 14.186297 19.199474 11.472804 10.174207 -0.219941 -18.963615 7.548535 2.417835 39.594692 -4.031333 2.666226 -13.547011 -11.469092 -3.811122 -18.077255 -2.997740 4.550091 -42.045258 -10.773862 -11.827381 39.130497 6.586509 -5.414673 -8.989535 23.536688 5.149315 -3.100495 3.175642 0.238941 
3.499697 46.133633 76.815933 0.038312 -9.549827 -0.038341 16.544458 7.497173 0.969833 -1.978668 -2.414452 1.288997 8.973350 -0.641641 0.760271 22.287886 -3.244365 -0.864859 -0.133845 -0.616834 -0.248188 6.333982 -7.387408 -1.953423 5.265038 4.413097 4.944178 -31.934750 -6.588776 -70.277466 -8.623451 -1.050374 -8.289772 -5.376168 -10.464019 -21.378923 4.260638 1.343408 -11.303384 1.358198 -24.335382 66.685760 2.686726 -14.135523 5.173750 3.824640 13.971581 19.737333 11.105807 11.320795 -0.013272 -18.071255 7.437265 2.615858 40.867435 -4.451889 2.768719 -13.582273 -12.298949 -3.361839 -19.750219 -3.106860 4.431123 -41.739239 -9.810147 -11.465858 42.270741 5.982168 -5.469164 -10.414906 21.976580 3.688508 -4.014600 2.681360 0.399286 
3.229225 45.985626 77.945412 0.037551 -9.398547 -0.044474 16.107971 8.124052 1.228408 -1.965004 -2.410757 1.381086 8.797165 -0.567569 0.827715 22.291306 -3.366695 -0.674894 -0.064739 -0.564169 -0.201272 6.179557 -7.452749 -1.974891 5.462040 4.213757 5.467455 -32.410038 -6.994969 -71.609650 -8.425920 -0.656328 -8.513206 -5.998013 -10.829429 -21.584539 4.746098 1.395620 -11.612381 1.388890 -24.417261 67.214478 3.773639 -14.664149 5.133883 3.800776 13.622632 19.908260 11.248457 12.264774 0.333032 -16.858652 7.006982 2.595761 40.747620 -4.819187 2.840045 -13.305477 -13.034085 -3.241421 -21.066803 -3.238994 4.575089 -42.070084 -9.792790 -11.519377 44.723808 5.492787 -5.343246 -11.722692 20.760115 3.112573 -4.646219 2.636652 0.284461 
2.967554 46.119713 78.869751 0.034571 -9.403646 -0.040642 16.042791 8.948114 1.393074 -2.248585 -2.505928 1.357332 8.561425 -0.650028 0.854788 22.178991 -3.145468 -0.592615 -0.029637 -0.658723 -0.241980 6.177872 -7.441656 -1.902471 5.768754 4.056423 6.148977 -32.586147 -6.707038 -72.633911 -7.658851 -0.198196 -8.336956 -5.697425 -11.142941 -22.152992 4.862300 1.491151 -12.131509 1.552392 -23.913069 68.040436 3.914368 -14.840991 4.751822 3.925560 13.323286 20.054100 11.250263 13.199854 0.279404 -15.663781 6.687827 2.729767 40.197670 -5.182785 3.270405 -12.549856 -13.454951 -3.292606 -22.459475 -3.113063 4.573725 -41.252720 -10.353540 -11.457997 45.413029 5.139546 -5.340491 -12.497699 20.170122 2.643774 -5.160195 2.544812 0.330758 
2.743622 46.326813 79.725014 0.035000 -9.273456 -0.045887 15.751617 9.438966 1.737638 -2.363930 -2.484221 1.443515 8.096468 -0.704703 1.032910 22.137642 -3.108297 -0.712026 -0.028475 -0.656312 -0.165154 5.951490 -7.287318 -2.214663 6.004651 3.783697 6.990044 -32.316208 -6.479447 -73.868332 -6.331316 0.711404 -8.068777 -6.143821 -11.277712 -23.030621 5.212179 1.275653 -12.657063 0.817204 -22.860306 68.707428 4.036336 -15.028335 4.602373 3.870908 12.961843 20.068954 11.656760 13.796838 0.323365 -14.408132 6.113424 2.902100 38.239395 -5.145787 2.892039 -10.979599 -13.981334 -3.133585 -23.875620 -2.988845 4.552033 -40.438297 -10.978519 -11.513056 45.152279 4.899937 -5.567201 -12.819410 19.912504 2.446987 -5.788522 2.503131 0.264879 
2.535097 46.601589 80.446892 0.034053 -9.450298 -0.042674 15.582425 10.312284 2.178756 -2.768199 -2.540248 1.386781 7.652949 -0.744488 1.224871 22.202728 -3.111971 -0.702722 -0.075736 -0.602373 -0.227337 5.787813 -7.172972 -2.272044 6.437805 3.491265 7.905300 -31.504915 -5.788633 -74.964333 -4.835288 1.325629 -7.772606 -5.955735 -11.247602 -23.724613 5.520308 1.031265 -13.036364 -0.063674 -21.571415 69.250626 3.374568 -15.056705 3.994514 4.201079 12.792787 20.055191 11.816536 14.648192 0.449324 -13.024419 5.521219 2.816196 36.200966 -5.064626 2.441169 -9.122478 -14.265641 -3.087960 -25.321363 -3.087437 4.849949 -39.456905 -11.357178 -11.604222 44.521172 4.592200 -5.491366 -12.996551 19.610754 2.181010 -6.041424 2.544941 0.269713 
2.227611 46.949020 81.210007 0.035387 -9.741645 -0.045820 14.902364 11.113631 2.710002 -2.984417 -2.587888 1.560824 7.143213 -0.903263 1.422586 22.231077 -3.108582 -0.804298 -0.043605 -0.564270 -0.316559 5.938209 -7.026478 -2.281066 7.119857 3.412275 9.032302 -30.829424 -5.013152 -76.201538 -3.134447 2.692086 -7.196475 -5.839819 -11.178219 -24.799755 5.690284 0.594384 -13.375057 -1.357995 -20.073965 69.605835 3.070509 -15.072159 3.451222 4.153674 12.852232 19.923138 11.991603 15.257431 0.430028 -11.529552 5.299963 3.336758 34.444656 -4.885674 2.055740 -7.645727 -14.532825 -3.256397 -26.742519 -2.957688 4.864593 -37.987854 -11.740788 -11.176688 42.912827 4.489313 -5.284487 -13.065869 19.358116 1.803967 -5.807415 2.506546 0.234713 
